HIERARCHY
ROOT pelvis
{
  OFFSET 0 100 0
  CHANNELS 6 Xposition Yposition Zposition Zrotation Xrotation Yrotation
  JOINT pelvis_right_femur
  {
    OFFSET -10.78128 -3.44521 -0.5502486
    CHANNELS 3 Zrotation Xrotation Yrotation
    JOINT right_femur_tibia
    {
      OFFSET -0.8047443 -44.0398 -0.1307829
      CHANNELS 3 Zrotation Xrotation Yrotation
      JOINT right_tibia_foot
      {
        OFFSET 3.006224 -47.83518 -5
        CHANNELS 3 Zrotation Xrotation Yrotation
        End Site
        {
          OFFSET 0 -5 15
        }
      }
    }
  }
  JOINT pelvis_left_femur
  {
    OFFSET 10.78128 -3.44521 -0.5502486
    CHANNELS 3 Zrotation Xrotation Yrotation
    JOINT left_femur_tibia
    {
      OFFSET 0.8047443 -44.0398 -0.1307829
      CHANNELS 3 Zrotation Xrotation Yrotation
      JOINT left_tibia_foot
      {
        OFFSET -4.370144 -48.10324 -4.275266
        CHANNELS 3 Zrotation Xrotation Yrotation
        End Site
        {
          OFFSET 0 -5 15
        }
      }
    }
  }
  JOINT pelvis_spine1
  {
    OFFSET 0 6.468898 -3.129235
    CHANNELS 3 Zrotation Xrotation Yrotation
    JOINT spine1
    {
      OFFSET 0 23.15396 4.99043
      CHANNELS 3 Zrotation Xrotation Yrotation
      JOINT spine2
      {
        OFFSET 0 20.79997 -5.064912
        CHANNELS 3 Zrotation Xrotation Yrotation
        JOINT neck
        {
          OFFSET 0 14.38658 9.616178
          CHANNELS 3 Zrotation Xrotation Yrotation
          End Site
          {
            OFFSET 0 20 0
          }
        }
      }
      JOINT right_manubrium
      {
        OFFSET -5.722621 16.35077 3.967754
        CHANNELS 3 Zrotation Xrotation Yrotation
        JOINT right_clavicle
        {
          OFFSET -13.16364 1.694482 -4.693211
          CHANNELS 3 Zrotation Xrotation Yrotation
          JOINT right_humerus
          {
            OFFSET -28.5034 -0.3100689 -2.792744
            CHANNELS 3 Zrotation Xrotation Yrotation
            JOINT right_radius
            {
              OFFSET -25.15693 0.02248979 -1.271978
              CHANNELS 3 Zrotation Xrotation Yrotation
              End Site
              {
                OFFSET -15 0 0
              }
            }
          }
        }
      }
      JOINT left_manubrium
      {
        OFFSET 5.722621 16.35077 3.967754
        CHANNELS 3 Zrotation Xrotation Yrotation
        JOINT left_clavicle
        {
          OFFSET 13.16364 1.694482 -4.693211
          CHANNELS 3 Zrotation Xrotation Yrotation
          JOINT left_humerus
          {
            OFFSET 29.39168 -1.063119 -2.237045
            CHANNELS 3 Zrotation Xrotation Yrotation
            JOINT left_radius
            {
              OFFSET 24.59957 -0.9528479 0.9047498
              CHANNELS 3 Zrotation Xrotation Yrotation
              End Site
              {
                OFFSET 15 -0 -0
              }
            }
          }
        }
      }
    }
  }
}
MOTION
Frames: 9
Frame Time: 0.0416666666667
-1574.519 95.13363 2270.366 -11.90961 2.249761 -102.0981 4.367275 6.384663 -7.654757 -0 18.10024 -0 -17.99799 8.453436 3.776825 -0.3862584 -7.896864 -2.117487 -0 24.20924 -0 5.902927 -5.656139 17.39342 0.3423022 -2.734784 5.036973 -1.30569 17.24434 -4.830373 1.220492 22.71241 3.583265 2.895305 -18.00359 4.098342 -5.693286 -25.93999 11.87702 95.35595 13.62008 -12.87336 -0 0 15.08277 -28.18848 8.168892 12.44036 5.844129 -26.78505 -9.631649 -89.04152 1.578369 22.00147 0 0 -10.35444 22.3316 13.08417 -16.1973
-1581.34 95.12643 2269.558 -11.89085 2.30292 -102.3777 4.362938 6.49134 -7.632798 -0 18.1423 -0 -17.9662 8.392729 3.772149 -0.3745016 -8.006609 -2.125745 -0 24.101 -0 5.899237 -5.649887 17.41965 0.3351916 -2.731956 5.05249 -1.311268 17.23199 -4.81605 1.221123 22.71094 3.584094 2.893541 -18.00384 4.101379 -5.681729 -25.95872 11.87525 95.31115 13.64564 -12.82135 -0 0 15.14431 -28.19115 8.168986 12.45933 5.839539 -26.74949 -9.615248 -89.06683 1.613976 22.05935 0 0 -10.29889 22.28412 13.09318 -16.13486
-1588.155 95.11479 2268.723 -11.87577 2.355437 -102.6556 4.354495 6.587698 -7.613548 -0 18.21128 -0 -17.93661 8.349825 3.76857 -0.3679839 -8.098804 -2.136198 -0 23.99016 -0 5.897875 -5.647952 17.44469 0.3268339 -2.729722 5.064895 -1.317785 17.22114 -4.80219 1.222118 22.71071 3.585447 2.892234 -18.00212 4.10501 -5.671078 -25.97421 11.87293 95.27232 13.66679 -12.77295 -0 0 15.19846 -28.19695 8.167712 12.47763 5.835135 -26.71581 -9.601417 -89.08866 1.645803 22.10951 0 0 -10.24394 22.24142 13.10088 -16.07887
-1594.964 95.10054 2267.858 -11.86464 2.407527 -102.9308 4.342517 6.668189 -7.598115 -0 18.3028 -0 -17.91093 8.32713 3.766247 -0.3670204 -8.168185 -2.148158 -0 23.88367 -0 5.898831 -5.650339 17.46705 0.3177511 -2.728193 5.073488 -1.324854 17.21243 -4.789599 1.223422 22.71172 3.58723 2.891453 -17.99849 4.109011 -5.661961 -25.98555 11.87021 95.24173 13.68231 -12.73102 -0 0 15.24207 -28.20554 8.165183 12.49418 5.831166 -26.68598 -9.590958 -89.10573 1.672005 22.14899 0 0 -10.19283 22.20597 13.10681 -16.03255
-1601.767 95.08567 2266.965 -11.85746 2.459423 -103.2026 4.327781 6.728307 -7.587361 -0 18.41119 -0 -17.8906 8.325768 3.765269 -0.3715822 -8.210957 -2.160865 -0 23.78796 -0 5.901976 -5.656808 17.48539 0.3084973 -2.727439 5.077812 -1.332059 17.20634 -4.778998 1.22496 22.71391 3.589325 2.891234 -17.99318 4.113136 -5.654903 -25.99209 11.86725 95.2211 13.69135 -12.69795 -0 0 15.27264 -28.21641 8.161577 12.50804 5.827854 -26.66171 -9.584451 -89.11704 1.691112 22.17557 0 0 -10.14854 22.17974 13.11065 -15.99849
-1608.566 95.07219 2266.043 -11.85394 2.511357 -103.4703 4.31122 6.764812 -7.581863 -0 18.52976 -0 -17.87675 8.345511 3.765661 -0.3813012 -8.224994 -2.173539 -0 23.70862 -0 5.90708 -5.666896 17.4987 0.2996279 -2.727491 5.077676 -1.338975 17.2032 -4.770982 1.226637 22.71713 3.591602 2.89158 -17.98652 4.117136 -5.650294 -25.99352 11.86423 95.21152 13.69346 -12.67559 -0 0 15.28857 -28.22889 8.157128 12.51843 5.825388 -26.64436 -9.582226 -89.12199 1.702098 22.18785 0 0 -10.1136 22.16416 13.11222 -15.97855
-1615.36 95.06196 2265.09 -11.85354 2.563548 -103.7336 4.293867 6.775896 -7.581878 -0 18.65119 -0 -17.87012 8.384806 3.767385 -0.3954971 -8.20993 -2.185425 -0 23.65006 -0 5.913827 -5.679949 17.50626 0.2916681 -2.728335 5.073163 -1.34519 17.20316 -4.765992 1.228348 22.72118 3.593921 2.892463 -17.97895 4.120771 -5.648375 -25.98985 11.86132 95.21337 13.68865 -12.66511 -0 0 15.28915 -28.24219 8.152109 12.52477 5.823907 -26.63486 -9.584345 -89.12039 1.704436 22.18536 0 0 -10.08993 22.16002 13.11146 -15.97369
-1622.151 95.05664 2264.107 -11.85548 2.616186 -103.9925 4.276798 6.761264 -7.587329 -0 18.76796 -0 -17.87103 8.440887 3.77034 -0.4132234 -8.167164 -2.195831 -0 23.61531 -0 5.921828 -5.695156 17.50774 0.2850843 -2.729919 5.06462 -1.350327 17.20617 -4.76429 1.229981 22.72577 3.596143 2.893823 -17.97096 4.123827 -5.649219 -25.98141 11.85872 95.22635 13.67735 -12.66695 -0 0 15.27463 -28.25546 8.146824 12.52674 5.823497 -26.63367 -9.590603 -89.11245 1.698118 22.16851 0 0 -10.07881 22.1674 13.10849 -15.98403
-1628.94 95.05749 2263.092 -11.85883 2.669422 -104.2472 4.261058 6.722148 -7.597813 -0 18.87282 -0 -17.87935 8.509972 3.774364 -0.43333 -8.099744 -2.204168 -0 23.60588 -0 5.930632 -5.711593 17.50316 0.2802567 -2.732148 5.052635 -1.354075 17.21199 -4.765942 1.231429 22.7306 3.598137 2.895571 -17.9631 4.126121 -5.652733 -25.96885 11.85657 95.24948 13.66036 -12.6808 -0 0 15.24617 -28.26783 8.141583 12.52427 5.824181 -26.64076 -9.600544 -89.09879 1.683654 22.13862 0 0 -10.08075 22.18572 13.10355 -16.00873
